<svg width="190" height="190" viewBox="0 0 190 190" fill="none" xmlns="http://www.w3.org/2000/svg">
<path d="M36.6442 129.716C38.2343 129.039 39.4876 128.089 40.404 126.864C41.312 125.62 41.8632 124.273 42.0575 122.822C42.2518 121.372 42.0608 119.969 41.4845 118.615C41.0669 117.633 40.5593 116.794 39.9617 116.098C39.3557 115.382 38.685 114.787 37.9495 114.311C37.1944 113.844 36.4124 113.505 35.6034 113.292L38.9013 111.889C40.0344 112.427 41.0046 113.127 41.8118 113.989C42.6191 114.852 43.3443 116.038 43.9874 117.55C44.5971 118.983 44.914 120.436 44.9382 121.91C44.9343 123.372 44.6617 124.775 44.1203 126.118C43.5593 127.469 42.7438 128.686 41.6737 129.767C40.6036 130.848 39.3029 131.715 37.7718 132.366C36.2406 133.017 34.7144 133.354 33.1933 133.375C31.6722 133.396 30.2401 133.136 28.8969 132.595C27.5341 132.062 26.3344 131.285 25.2979 130.266C24.2333 129.235 23.3962 128.003 22.7865 126.57C22.1434 125.059 21.7912 123.713 21.7299 122.534C21.6685 121.354 21.8369 120.17 22.235 118.98L25.533 117.577C25.1249 118.307 24.837 119.102 24.6695 119.961C24.4823 120.829 24.4366 121.73 24.5321 122.663C24.6194 123.576 24.8718 124.524 25.2894 125.505C25.8657 126.86 26.7437 127.97 27.9236 128.836C29.1034 129.702 30.4564 130.239 31.9825 130.447C33.4806 130.645 35.0345 130.401 36.6442 129.716Z" fill="white"/>
<path d="M28.1166 99.1336C29.792 99.3163 31.3265 99.1188 32.72 98.5411C34.1158 97.9422 35.2648 97.0482 36.167 95.859C37.0693 94.6698 37.6083 93.2693 37.784 91.6575C37.9621 90.0246 37.7376 88.5408 37.1106 87.2063C36.4859 85.8506 35.5554 84.7405 34.3192 83.8761C33.0852 82.9904 31.6306 82.4562 29.9552 82.2735C28.2798 82.0908 26.7442 82.2989 25.3484 82.8978C23.9549 83.4755 22.807 84.3589 21.9047 85.5481C21.0048 86.7161 20.4658 88.1166 20.2878 89.7496C20.112 91.3614 20.3365 92.8451 20.9612 94.2008C21.5859 95.5565 22.5152 96.6772 23.7491 97.5629C24.9854 98.4273 26.4412 98.9509 28.1166 99.1336ZM27.8044 101.997C26.1714 101.819 24.6957 101.379 23.3774 100.677C22.0401 99.9517 20.918 99.0246 20.011 97.8956C19.0829 96.7643 18.4077 95.4782 17.9854 94.0373C17.5419 92.594 17.408 91.0665 17.5838 89.4547C17.7619 87.8217 18.2218 86.359 18.9636 85.0664C19.6866 83.7504 20.6231 82.64 21.7733 81.7354C22.9023 80.8284 24.1967 80.1756 25.6565 79.7768C27.0974 79.3545 28.6344 79.2324 30.2674 79.4105C31.8792 79.5863 33.3537 80.0368 34.6909 80.762C36.0305 81.466 37.1644 82.3837 38.0926 83.515C38.9995 84.644 39.6747 85.9301 40.1182 87.3733C40.5428 88.7931 40.6661 90.3194 40.488 91.9524C40.3122 93.5642 39.8629 95.0281 39.14 96.3441C38.3958 97.6579 37.4593 98.7682 36.3303 99.6752C35.1801 100.58 33.874 101.242 32.4118 101.662C30.952 102.061 29.4162 102.172 27.8044 101.997Z" fill="white"/>
<path d="M37.2963 45.3439L38.9336 43.1718L57.7153 57.3294L33.2987 60.163L46.612 70.1985L44.9748 72.3706L26.193 58.213L50.6096 55.3794L37.2963 45.3439Z" fill="white"/>
<path d="M53.6574 34.6655L52.4651 32.4001L65.0665 25.7681L66.2587 28.0336L61.1615 30.7162L70.4016 48.2731L67.9946 49.5399L58.7545 31.9829L53.6574 34.6655Z" fill="white"/>
<path d="M84.2262 36.4301L85.0036 33.8088L94.899 33.1104L96.0368 35.5964L84.2262 36.4301ZM89.3197 25.4201L86.1794 34.5599L85.9646 35.1525L83.1991 43.2393L80.1666 43.4533L88.8848 19.2595L100.915 41.9889L97.8826 42.2029L94.0859 34.7718L93.7855 34.1514L89.3197 25.4201Z" fill="white"/>
<path d="M114.645 34.0148C113.964 35.6029 113.715 37.156 113.9 38.6744C114.104 40.2011 114.637 41.5556 115.499 42.738C116.362 43.9203 117.469 44.8016 118.822 45.3819C119.803 45.8023 120.749 46.0575 121.662 46.1474C122.595 46.2457 123.492 46.2124 124.352 46.0474C125.22 45.8627 126.02 45.5674 126.751 45.1615L125.338 48.4553C124.148 48.8499 122.963 49.0148 121.783 48.9501C120.604 48.8853 119.26 48.5291 117.75 47.8816C116.319 47.2678 115.085 46.4368 114.049 45.3889C113.041 44.3297 112.268 43.1278 111.731 41.7831C111.202 40.4187 110.95 38.976 110.976 37.455C111.001 35.9339 111.342 34.4088 111.998 32.8795C112.654 31.3502 113.524 30.0521 114.608 28.9852C115.693 27.9183 116.907 27.1161 118.252 26.5786C119.605 26.0216 121.009 25.7531 122.462 25.7731C123.944 25.7819 125.401 26.0933 126.832 26.7072C128.342 27.3547 129.526 28.0833 130.386 28.8931C131.246 29.7029 131.943 30.6751 132.478 31.8098L131.065 35.1036C130.855 34.294 130.514 33.5207 130.04 32.7839C129.576 32.0274 128.986 31.3452 128.272 30.7371C127.578 30.1374 126.74 29.6274 125.76 29.2069C124.407 28.6267 123.005 28.4316 121.554 28.6216C120.103 28.8117 118.754 29.359 117.507 30.2634C116.288 31.1566 115.334 32.4071 114.645 34.0148Z" fill="white"/>
<path d="M144.598 41.1942L146.468 39.4461L156.192 49.8496L154.321 51.5976L150.388 47.3895L135.893 60.9368L134.036 58.9496L148.531 45.4023L144.598 41.1942Z" fill="white"/>
<path d="M164.62 87.5138L149.431 86.4284L149.327 83.7104L172.934 85.5312L157.064 95.1036L173.618 103.438L150.218 107.053L150.115 104.335L165.176 102.095L151.851 95.3025L164.62 87.5138Z" fill="white"/>
<path d="M146.729 116.334L149.048 117.419L144.262 127.651L141.943 126.566L146.729 116.334ZM164.7 124.74L167.019 125.824L162.233 136.057L159.914 134.972L164.7 124.74ZM156.584 120.944L158.903 122.028L154.388 131.681L152.07 130.596L156.584 120.944ZM167.656 124.462L166.504 126.926L146.214 117.436L147.366 114.972L167.656 124.462Z" fill="white"/>
<circle cx="95" cy="95" r="94.25" stroke="white" stroke-width="1.5"/>
<circle cx="95" cy="98" r="41.5" stroke="white"/>
<path d="M115.499 84.0351C115.518 83.7597 115.311 83.5206 115.035 83.5012L110.546 83.1851C110.271 83.1657 110.032 83.3733 110.012 83.6488C109.993 83.9242 110.201 84.1632 110.476 84.1826L114.466 84.4636L114.185 88.4538C114.166 88.7292 114.373 88.9683 114.649 88.9876C114.924 89.007 115.163 88.7995 115.183 88.524L115.499 84.0351ZM77.3278 117.378L115.328 84.3775L114.672 83.6225L76.6722 116.622L77.3278 117.378Z" fill="white"/>
</svg>
