<svg width="104" height="104" viewBox="0 0 104 104" fill="none" xmlns="http://www.w3.org/2000/svg">
<circle cx="52" cy="52" r="52" fill="#010400"/>
<path d="M17.677 66V28.1818H34.0747C36.9554 28.1818 39.3744 28.5696 41.3318 29.3452C43.3015 30.1207 44.7849 31.2164 45.7821 32.6321C46.7915 34.0478 47.2963 35.7159 47.2963 37.6364C47.2963 39.0275 46.9885 40.2955 46.373 41.4403C45.7698 42.5852 44.9203 43.5455 43.8247 44.321C42.729 45.0843 41.4487 45.6136 39.9838 45.9091V46.2784C41.6088 46.34 43.086 46.7524 44.4156 47.5156C45.7451 48.2666 46.8038 49.3068 47.5917 50.6364C48.3796 51.9536 48.7735 53.5047 48.7735 55.2898C48.7735 57.358 48.2319 59.1984 47.1485 60.8111C46.0775 62.4238 44.551 63.6918 42.569 64.6151C40.587 65.5384 38.2234 66 35.4781 66H17.677ZM27.944 57.8011H32.7451C34.4686 57.8011 35.7612 57.4811 36.623 56.8409C37.4847 56.1884 37.9156 55.2282 37.9156 53.9602C37.9156 53.0739 37.7125 52.3229 37.3062 51.7074C36.9 51.0919 36.3214 50.6241 35.5704 50.304C34.8318 49.9839 33.9393 49.8239 32.8929 49.8239H27.944V57.8011ZM27.944 43.4716H32.1542C33.0529 43.4716 33.8469 43.33 34.5363 43.0469C35.2257 42.7637 35.7612 42.3575 36.1429 41.8281C36.5368 41.2865 36.7338 40.6278 36.7338 39.8523C36.7338 38.6828 36.3152 37.7902 35.4781 37.1747C34.641 36.5469 33.5823 36.233 32.302 36.233H27.944V43.4716ZM86.4477 47.0909C86.4477 51.3011 85.629 54.8527 83.9917 57.7457C82.3544 60.6264 80.1447 62.8116 77.3625 64.3011C74.5803 65.7784 71.478 66.517 68.0556 66.517C64.6087 66.517 61.4941 65.7723 58.7119 64.2827C55.942 62.7808 53.7384 60.5895 52.1011 57.7088C50.4761 54.8158 49.6636 51.2765 49.6636 47.0909C49.6636 42.8807 50.4761 39.3352 52.1011 36.4545C53.7384 33.5616 55.942 31.3764 58.7119 29.8991C61.4941 28.4096 64.6087 27.6648 68.0556 27.6648C71.478 27.6648 74.5803 28.4096 77.3625 29.8991C80.1447 31.3764 82.3544 33.5616 83.9917 36.4545C85.629 39.3352 86.4477 42.8807 86.4477 47.0909ZM75.8852 47.0909C75.8852 44.8258 75.5836 42.9176 74.9804 41.3665C74.3895 39.803 73.5092 38.6212 72.3397 37.821C71.1825 37.0085 69.7545 36.6023 68.0556 36.6023C66.3568 36.6023 64.9226 37.0085 63.7531 37.821C62.5959 38.6212 61.7157 39.803 61.1125 41.3665C60.5216 42.9176 60.2261 44.8258 60.2261 47.0909C60.2261 49.3561 60.5216 51.2704 61.1125 52.8338C61.7157 54.3849 62.5959 55.5668 63.7531 56.3793C64.9226 57.1795 66.3568 57.5795 68.0556 57.5795C69.7545 57.5795 71.1825 57.1795 72.3397 56.3793C73.5092 55.5668 74.3895 54.3849 74.9804 52.8338C75.5836 51.2704 75.8852 49.3561 75.8852 47.0909Z" fill="#F10039"/>
<path d="M21.67 77V68.2727H24.7212C25.3291 68.2727 25.8305 68.3778 26.2254 68.5881C26.6203 68.7955 26.9143 69.0753 27.1075 69.4276C27.3007 69.777 27.3973 70.1648 27.3973 70.5909C27.3973 70.9659 27.3305 71.2756 27.197 71.5199C27.0663 71.7642 26.893 71.9574 26.6771 72.0994C26.4641 72.2415 26.2325 72.3466 25.9825 72.4148V72.5C26.2496 72.517 26.518 72.6108 26.7879 72.7812C27.0578 72.9517 27.2837 73.196 27.4655 73.5142C27.6473 73.8324 27.7382 74.2216 27.7382 74.6818C27.7382 75.1193 27.6388 75.5128 27.4399 75.8622C27.241 76.2116 26.9271 76.4886 26.4981 76.6932C26.0692 76.8977 25.5109 77 24.8234 77H21.67ZM22.7268 76.0625H24.8234C25.5138 76.0625 26.0038 75.929 26.2936 75.6619C26.5862 75.392 26.7325 75.0653 26.7325 74.6818C26.7325 74.3864 26.6572 74.1136 26.5067 73.8636C26.3561 73.6108 26.1416 73.4091 25.8632 73.2585C25.5848 73.1051 25.2552 73.0284 24.8746 73.0284H22.7268V76.0625ZM22.7268 72.108H24.6871C25.0052 72.108 25.2922 72.0455 25.5479 71.9205C25.8064 71.7955 26.0109 71.6193 26.1615 71.392C26.3149 71.1648 26.3916 70.8977 26.3916 70.5909C26.3916 70.2074 26.2581 69.8821 25.991 69.6151C25.724 69.3452 25.3007 69.2102 24.7212 69.2102H22.7268V72.108ZM41.8115 68.2727V77H40.7547V68.2727H41.8115ZM62.1309 68.2727V77H61.1082L56.3525 70.1477H56.2673V77H55.2105V68.2727H56.2332L61.0059 75.142H61.0912V68.2727H62.1309ZM81.4916 71C81.3978 70.7131 81.2742 70.456 81.1208 70.2287C80.9702 69.9986 80.7898 69.8026 80.5796 69.6406C80.3722 69.4787 80.1364 69.3551 79.8722 69.2699C79.608 69.1847 79.3183 69.142 79.0029 69.142C78.4859 69.142 78.0157 69.2756 77.5924 69.5426C77.1691 69.8097 76.8325 70.2031 76.5825 70.723C76.3325 71.2429 76.2075 71.8807 76.2075 72.6364C76.2075 73.392 76.3339 74.0298 76.5867 74.5497C76.8396 75.0696 77.1819 75.4631 77.6137 75.7301C78.0455 75.9972 78.5313 76.1307 79.0711 76.1307C79.5711 76.1307 80.0114 76.0241 80.3921 75.8111C80.7756 75.5952 81.0739 75.2912 81.287 74.8991C81.5029 74.5043 81.6109 74.0398 81.6109 73.5057L81.9347 73.5739H79.3097V72.6364H82.6336V73.5739C82.6336 74.2926 82.4802 74.9176 82.1734 75.4489C81.8694 75.9801 81.4489 76.392 80.912 76.6847C80.3779 76.9744 79.7643 77.1193 79.0711 77.1193C78.2984 77.1193 77.6194 76.9375 77.0342 76.5739C76.4518 76.2102 75.9972 75.6932 75.6705 75.0227C75.3467 74.3523 75.1847 73.5568 75.1847 72.6364C75.1847 71.946 75.2771 71.3253 75.4617 70.7741C75.6492 70.2202 75.9134 69.7486 76.2543 69.3594C76.5952 68.9702 76.9987 68.6719 77.4646 68.4645C77.9305 68.2571 78.4433 68.1534 79.0029 68.1534C79.4631 68.1534 79.8921 68.223 80.2898 68.3622C80.6904 68.4986 81.047 68.6932 81.3595 68.946C81.6748 69.196 81.9376 69.4957 82.1478 69.8452C82.358 70.1918 82.5029 70.5767 82.5825 71H81.4916Z" fill="white"/>
</svg>
