<svg width="35" height="50" viewBox="0 0 35 50" fill="none" xmlns="http://www.w3.org/2000/svg">
<path d="M17.5 25.0001C17.5 13.8923 34.1672 13.8923 34.1672 25.0001C34.1672 36.1079 17.5 36.1079 17.5 25.0001ZM0.832801 41.6673C0.832185 40.5728 1.0473 39.489 1.46584 38.4777C1.88439 37.4665 2.49816 36.5476 3.27205 35.7737C4.04595 34.9998 4.96479 34.3861 5.97605 33.9675C6.98732 33.549 8.07116 33.3339 9.16561 33.3345H17.4984V41.6673C17.4984 52.7751 0.831238 52.7751 0.831238 41.6673H0.832801ZM17.5 9.89763e-05V16.6673H25.8328C36.9406 16.6673 36.9406 9.89763e-05 25.8328 9.89763e-05H17.5ZM0.832801 8.33291C0.832185 9.42737 1.0473 10.5112 1.46584 11.5225C1.88439 12.5337 2.49816 13.4526 3.27205 14.2265C4.04595 15.0004 4.96479 15.6141 5.97605 16.0327C6.98732 16.4512 8.07116 16.6663 9.16561 16.6657H17.4984V-0.00146352H9.16561C8.07116 -0.00207971 6.98732 0.213034 5.97605 0.631579C4.96479 1.05012 4.04595 1.66389 3.27205 2.43779C2.49816 3.21168 1.88439 4.13053 1.46584 5.14179C1.0473 6.15305 0.832185 7.23689 0.832801 8.33135V8.33291ZM0.832801 25.0001C0.832185 26.0946 1.0473 27.1784 1.46584 28.1897C1.88439 29.2009 2.49816 30.1198 3.27205 30.8937C4.04595 31.6676 4.96479 32.2813 5.97605 32.6999C6.98732 33.1184 8.07116 33.3351 9.16561 33.3345H17.4984V16.6657H9.16561C8.07116 16.6651 6.98732 16.8802 5.97605 17.2988C4.96479 17.7173 4.04595 18.3311 3.27205 19.105C2.49816 19.8789 1.88439 20.7977 1.46584 21.809C1.0473 22.8202 0.832185 23.9041 0.832801 24.9985V25.0001Z" fill="black"/>
</svg>
