<svg width="169" height="201" viewBox="0 0 169 201" fill="none" xmlns="http://www.w3.org/2000/svg">
<g id="gearholder">
<g id="thirdgear">
<path id="first-gear" class="firstgear"  d="M64.4327 18.0475C63.6311 19.2673 62.8446 20.436 62.0929 21.6276C61.876 21.9708 61.6545 22.0068 61.2603 22.0027C60.0975 21.9925 59.5977 21.426 59.4179 20.3208C59.262 19.3633 58.9205 18.4373 58.6789 17.4928C58.6114 17.229 58.5169 17.0923 58.2107 17.1023C57.1076 17.1388 56.0034 17.1611 54.8991 17.1607C54.5104 17.161 54.3792 17.3174 54.3229 17.6855C54.1326 18.918 53.8999 20.1428 53.6997 21.3731C53.6327 21.7825 53.4493 21.9629 53.0335 22.1336C51.7885 22.6447 50.9132 22.402 50.1991 21.2254C49.7535 20.4906 49.105 19.8808 48.5627 19.2025C48.3824 18.9768 48.226 18.9498 47.9698 19.0846C46.994 19.5987 46.0106 20.0988 45.0196 20.5836C44.7396 20.7206 44.6734 20.8694 44.7431 21.1766C45.0229 22.4088 45.2604 23.6519 45.5358 24.8851C45.6316 25.315 45.5873 25.6288 45.1792 25.894C44.7255 26.1885 44.3001 26.5341 43.9029 26.9024C43.6414 27.1447 43.4297 27.1491 43.1386 26.9886C42.11 26.4203 41.0652 25.8802 40.0421 25.3032C39.7629 25.1459 39.6044 25.1754 39.4069 25.4154C38.6475 26.3366 37.8793 27.2502 37.097 28.1519C36.9006 28.3778 36.9192 28.5364 37.0854 28.7599C37.8493 29.792 38.5916 30.8393 39.3598 31.8682C39.5478 32.12 39.5686 32.3035 39.4059 32.5848C39.0534 33.1941 38.7269 33.8219 38.4417 34.4659C38.3008 34.7841 38.1217 34.8972 37.7895 34.8908C36.6309 34.8698 35.4724 34.8673 34.3139 34.8582C34.1369 34.8572 33.9599 34.8584 33.7634 34.8585C33.4255 36.3484 33.0985 37.7905 32.7585 39.288C33.9456 39.891 35.1262 40.5113 36.3274 41.0893C36.6978 41.2671 36.8152 41.4734 36.7883 41.8805C36.7485 42.4734 36.776 43.0738 36.8121 43.6688C36.833 44.0065 36.7223 44.1868 36.4162 44.3389C35.2027 44.9412 34.0044 45.5738 32.7486 46.2206C33.0904 47.6406 33.418 49.0432 33.7815 50.4361C33.8098 50.5457 34.0857 50.6585 34.2431 50.6551C35.4374 50.6327 36.6318 50.6005 37.8228 50.5281C38.1594 50.5072 38.2952 50.6125 38.4311 50.898C38.742 51.5503 39.0768 52.1929 39.4431 52.8159C39.6083 53.097 39.591 53.299 39.4088 53.5477C38.7025 54.5101 38.0321 55.4986 37.3009 56.4415C36.957 56.8858 36.9832 57.1789 37.3602 57.5891C38.1772 58.479 38.9368 59.422 39.7375 60.364C40.8913 59.7259 42.0169 59.1172 43.1284 58.4825C43.4529 58.2966 43.6841 58.2693 43.9775 58.558C44.3631 58.9367 44.7901 59.2817 45.2332 59.5909C45.5874 59.8382 45.6342 60.1194 45.5508 60.5114C45.2888 61.7482 45.0703 62.9948 44.7985 64.2295C44.7259 64.5586 44.7923 64.7149 45.0844 64.8645C46.1293 65.4003 47.1633 65.961 48.2657 66.5455C48.7756 65.9383 49.2834 65.3354 49.7879 64.7314C50.2176 64.2176 50.6592 63.7135 51.0649 63.1812C51.2483 62.9401 51.4296 62.8802 51.7097 62.9615C52.1952 63.1024 52.6828 63.2562 53.1801 63.3309C53.5732 63.3893 53.6688 63.602 53.7244 63.9364C53.9369 65.2196 54.1809 66.4985 54.3847 67.784C54.4447 68.165 54.5957 68.2811 54.9811 68.2787C55.9214 68.2727 56.866 68.283 57.802 68.3628C58.3514 68.4091 58.6 68.2657 58.7354 67.7118C59.0278 66.5195 59.4071 65.3477 59.7267 64.1619C59.8188 63.822 59.9816 63.6698 60.3366 63.6045C61.8033 63.3365 61.7978 63.3256 62.6075 64.5738C63.2074 65.4985 63.8182 66.4167 64.4659 67.4C65.598 66.8847 66.7291 66.378 67.8482 65.8442C67.9383 65.8007 67.9935 65.5738 67.9804 65.4402C67.8482 64.1276 67.6867 62.8183 67.5687 61.5046C67.5523 61.3222 67.7096 61.1125 67.8181 60.9344C67.869 60.8518 68.0102 60.829 68.084 60.754C68.9282 59.8892 69.6981 60.0494 70.5758 60.7829C71.3612 61.4382 72.2779 61.936 73.1925 62.5403C73.9163 61.8493 74.6488 61.1594 75.3704 60.4586C76.0746 59.7752 76.0703 59.7709 75.5736 58.9243C75.0432 58.0191 74.5182 57.1106 73.9748 56.2141C73.815 55.9514 73.7606 55.7462 74.0026 55.4975C74.2022 55.2921 74.3975 55.0564 74.5103 54.7979C74.7933 54.1517 75.2547 54.1558 75.8411 54.2966C76.9119 54.5533 77.9988 54.7448 79.0739 54.9873C79.3953 55.0599 79.5625 54.9914 79.7045 54.6819C80.1329 53.7446 80.5785 52.8149 81.0525 51.8993C81.2238 51.5691 81.1434 51.402 80.8805 51.1806C79.8832 50.3419 78.9142 49.4717 77.9224 48.6276C77.6562 48.4008 77.5584 48.1913 77.6928 47.8362C77.8511 47.4159 77.9724 46.9696 78.0232 46.5244C78.0783 46.0412 78.3279 45.8771 78.7676 45.7813C79.9867 45.5178 81.1972 45.2174 82.4054 44.9061C82.5477 44.8691 82.7495 44.6736 82.7516 44.5476C82.7758 43.2479 82.7652 41.9472 82.7644 40.628C81.3647 40.2803 80.004 39.9282 78.6346 39.6098C78.2578 39.5221 78.0992 39.3442 78.0425 38.9707C77.9716 38.5082 77.8574 38.0479 77.7138 37.6017C77.6082 37.2761 77.683 37.0741 77.9359 36.8557C78.9202 36.0017 79.8773 35.1183 80.8648 34.2676C81.1611 34.0123 81.2185 33.7994 81.0315 33.4434C80.5532 32.5316 80.1043 31.6025 79.6661 30.6712C79.5281 30.3781 79.3619 30.3456 79.0655 30.4131C77.8855 30.6842 76.6967 30.9173 75.5155 31.1862C75.1703 31.2645 74.9542 31.1865 74.7336 30.8989C73.7861 29.6617 73.773 29.6671 74.5203 28.3203C75.0116 27.4351 75.5138 26.5564 76.0453 25.6158C75.1468 24.7608 74.2549 23.896 73.3358 23.0605C73.2522 22.9845 72.9645 23.0423 72.8277 23.127C71.7717 23.7922 70.7232 24.4703 69.6878 25.1669C69.4089 25.3549 69.221 25.317 68.9191 25.1815C67.7755 24.6665 67.3396 23.9002 67.6483 22.6285C67.8595 21.7598 67.8622 20.8369 67.9225 19.9368C67.9332 19.7739 67.8147 19.5297 67.6789 19.444C67.3759 19.253 67.0273 19.1338 66.6939 18.994C65.9662 18.685 65.2321 18.3814 64.4327 18.0475ZM57.493 24.2753C68.1097 24.3481 75.7122 33.1915 75.7667 42.4552C75.8271 52.6625 67.5164 61.1626 57.4968 61.0796C46.8139 60.9916 38.9736 52.105 39.1717 42.169C39.3508 33.1472 47.0631 24.3229 57.493 24.2753Z" fill="black"/>
<path id="second-gear"  class="secondgear" d="M40.5771 42.7241C40.6532 51.8912 48.202 59.9051 57.9564 59.6896C66.5241 59.4998 74.4339 52.2388 74.3291 42.4181C74.2256 32.7657 66.0692 25.5329 57.331 25.662C48.1987 25.7967 40.54 33.5146 40.5771 42.7241ZM68.0288 37.7444C68.2311 38.2731 68.4018 38.7214 68.5921 39.2197C67.8464 39.4774 67.1712 39.7124 66.4743 39.9527C66.6267 40.6508 66.7715 41.3109 66.9196 41.9905C67.6351 41.99 68.3191 41.9896 69.0498 41.9892C69.0502 42.5038 69.0505 42.9924 69.0507 43.4789C68.2994 43.4793 67.6023 43.4797 66.9118 43.4801C66.7797 44.1838 66.6542 44.8527 66.5232 45.5499C67.2118 45.7894 67.8688 46.0192 68.5866 46.2696C68.3828 46.7843 68.2029 47.2405 68.0121 47.7248C67.3007 47.4223 66.6773 47.1578 66.0496 46.8911C65.6276 47.5374 65.2338 48.1391 64.8238 48.7648C65.3691 49.2389 65.908 49.7076 66.4848 50.2089C66.1159 50.613 65.7784 50.9813 65.3813 51.4148C64.8479 50.8549 64.3546 50.3372 63.8603 49.8175C63.2221 50.2728 62.6122 50.7075 61.9979 51.1465C62.3251 51.776 62.6305 52.3654 62.9719 53.0232C62.4639 53.2461 61.9949 53.4516 61.4804 53.6766C61.214 52.9678 60.9758 52.3306 60.7366 51.6934C60.0982 51.8317 59.5066 51.996 58.904 52.0778C58.5392 52.1269 58.4503 52.2605 58.4939 52.6003C58.5659 53.1518 58.6031 53.7066 58.66 54.3135C58.0704 54.3139 57.5579 54.3142 56.9911 54.3145C57.0255 53.5946 57.0587 52.903 57.0919 52.2146C56.3123 52.062 55.5912 51.9202 54.8474 51.7751C54.6046 52.4387 54.3715 53.0783 54.119 53.769C53.5792 53.5392 53.0937 53.3321 52.5713 53.1098C52.9184 52.4169 53.222 51.8109 53.5159 51.2244C52.8446 50.7677 52.22 50.3424 51.5705 49.9009C51.0844 50.3974 50.595 50.8982 50.0741 51.4295C49.6841 51.0399 49.318 50.6742 48.9204 50.2771C49.489 49.7871 50.0294 49.322 50.5416 48.8798C50.1059 48.2221 49.7081 47.6241 49.2897 46.9935C48.6601 47.2773 48.024 47.5643 47.3565 47.8655C47.1466 47.3607 46.9552 46.8983 46.7378 46.3772C47.3196 46.1587 47.8537 45.9466 48.3964 45.7595C48.67 45.6649 48.759 45.5487 48.6665 45.2436C48.5316 44.7953 48.4368 44.3306 48.3812 43.866C48.3441 43.5522 48.2127 43.4708 47.9271 43.4916C47.3734 43.5311 46.8197 43.5499 46.204 43.5806C46.2037 43.0399 46.2034 42.5296 46.2031 41.9563C46.7981 41.9983 47.3366 42.0262 47.872 42.0802C48.1684 42.1104 48.3367 42.0701 48.3821 41.714C48.4534 41.1439 48.5898 40.5825 48.71 39.9646C48.0692 39.7218 47.4176 39.4757 46.7085 39.2068C46.9285 38.6834 47.1335 38.1979 47.346 37.6907C48.0487 38.016 48.6786 38.3088 49.2759 38.5864C49.725 37.9173 50.1329 37.309 50.5592 36.6736C50.015 36.2081 49.4707 35.7437 48.9884 35.3314C49.3714 34.8991 49.7121 34.5134 50.0799 34.0973C50.6036 34.6649 51.0871 35.1879 51.551 35.6893C52.2272 35.2166 52.8469 34.784 53.4948 34.332C53.2024 33.7198 52.9099 33.1054 52.5816 32.4172C53.1189 32.1878 53.6183 31.9736 54.148 31.7464C54.396 32.4748 54.6157 33.1196 54.8332 33.76C55.5997 33.6141 56.3195 33.4768 57.0751 33.3331C57.0747 32.6295 57.0742 31.9205 57.0738 31.218C57.6167 31.2177 58.1075 31.2174 58.6601 31.217C58.5911 31.9706 58.5274 32.6655 58.4627 33.3626C59.2207 33.5283 59.9515 33.6875 60.6943 33.8499C60.9588 33.1668 61.2103 32.5184 61.4835 31.8136C62.0135 32.0434 62.4718 32.2419 62.9464 32.4479C62.6167 33.1234 62.3087 33.7544 61.991 34.4039C62.6341 34.8693 63.2532 35.3174 63.8833 35.773C64.3965 35.2255 64.8848 34.704 65.4121 34.1413C65.8033 34.5764 66.1444 34.9551 66.4964 35.3458C65.8822 35.8706 65.3353 36.3367 64.797 36.7953C65.2132 37.4356 65.6045 38.0369 66.0142 38.6675C66.6796 38.362 67.3157 38.0706 68.0288 37.7444Z" fill="black"/>
<path id="Vector" d="M49.1362 42.9198C49.1443 47.3813 53.151 51.4081 57.5658 51.3914C62.2769 51.3744 66.1204 47.5002 66.1034 42.7847C66.0864 38.0193 62.2708 34.1584 57.589 34.1699C52.9408 34.1825 49.1267 38.1294 49.1362 42.9198ZM64.06 42.7642C64.2163 46.2462 61.014 49.2829 57.7176 49.2838C54.2138 49.2848 51.2229 46.3257 51.2175 42.8404C51.2121 39.2628 54.1191 36.2915 57.6424 36.2741C61.1386 36.2568 64.0535 39.2051 64.06 42.7642Z" fill="black"/>
</g>
<g id="secondgear">
<path id="first-gear"  class="firstgear" d="M138.224 2.44234C136.898 4.45964 135.597 6.39253 134.354 8.3631C133.995 8.93074 133.629 8.99022 132.977 8.98343C131.054 8.96664 130.228 8.02981 129.93 6.20203C129.673 4.61844 129.108 3.0871 128.708 1.52514C128.597 1.08886 128.44 0.862709 127.934 0.879176C126.11 0.939537 124.283 0.976555 122.457 0.975864C121.814 0.976253 121.597 1.23496 121.504 1.84373C121.189 3.88197 120.805 5.90769 120.474 7.94234C120.363 8.61937 120.059 8.91763 119.372 9.19996C117.313 10.0452 115.865 9.64381 114.684 7.69805C113.947 6.48285 112.875 5.47435 111.978 4.35262C111.68 3.97931 111.421 3.93457 110.998 4.15749C109.384 5.0078 107.757 5.83478 106.119 6.63662C105.655 6.86316 105.546 7.10922 105.661 7.61732C106.124 9.65509 106.517 11.7109 106.972 13.7504C107.131 14.4614 107.057 14.9804 106.382 15.4189C105.632 15.906 104.929 16.4774 104.272 17.0866C103.839 17.4872 103.489 17.4946 103.008 17.2292C101.307 16.2893 99.5788 15.3961 97.8867 14.4419C97.4251 14.1818 97.1629 14.2304 96.8364 14.6274C95.5803 16.1509 94.3099 17.6618 93.0162 19.153C92.6914 19.5267 92.7221 19.7888 92.997 20.1585C94.2604 21.8654 95.4879 23.5975 96.7584 25.299C97.0693 25.7154 97.1036 26.0188 96.8346 26.484C96.2516 27.4917 95.7117 28.5299 95.2401 29.595C95.007 30.1213 94.7108 30.3082 94.1614 30.2978C92.2454 30.263 90.3294 30.2588 88.4135 30.2438C88.1208 30.2422 87.8281 30.2442 87.5031 30.2444C86.9444 32.7083 86.4035 35.0933 85.8412 37.5698C87.8044 38.567 89.7569 39.5929 91.7435 40.5488C92.3559 40.8429 92.5501 41.1839 92.5056 41.8573C92.4398 42.8378 92.4852 43.8307 92.5451 44.8147C92.5796 45.3731 92.3966 45.6713 91.8904 45.923C89.8834 46.919 87.9017 47.9653 85.8248 49.0349C86.39 51.3833 86.9319 53.7029 87.5331 56.0064C87.5799 56.1877 88.0361 56.3742 88.2964 56.3686C90.2716 56.3315 92.2468 56.2782 94.2165 56.1585C94.7731 56.1241 94.9977 56.2981 95.2224 56.7702C95.7367 57.8491 96.2904 58.9118 96.8961 59.9421C97.1693 60.407 97.1408 60.741 96.8394 61.1524C95.6714 62.7441 94.5627 64.3788 93.3534 65.9381C92.7846 66.6729 92.828 67.1577 93.4515 67.836C94.8027 69.3076 96.0588 70.8673 97.3831 72.4251C99.2912 71.3699 101.153 70.3632 102.991 69.3135C103.527 69.0061 103.91 68.961 104.395 69.4383C105.033 70.0646 105.739 70.6352 106.472 71.1465C107.057 71.5556 107.135 72.0206 106.997 72.6689C106.564 74.7144 106.202 76.776 105.753 78.8179C105.633 79.362 105.743 79.6206 106.226 79.8681C107.954 80.7541 109.664 81.6814 111.487 82.6481C112.33 81.6438 113.17 80.6468 114.004 79.6479C114.715 78.7981 115.445 77.9645 116.116 77.0842C116.419 76.6854 116.719 76.5865 117.183 76.7209C117.985 76.9538 118.792 77.2083 119.614 77.3317C120.264 77.4283 120.423 77.7801 120.514 78.3331C120.866 80.4554 121.269 82.5704 121.606 84.6962C121.706 85.3264 121.955 85.5184 122.593 85.5144C124.148 85.5045 125.71 85.5215 127.258 85.6534C128.167 85.7301 128.578 85.4928 128.802 84.5769C129.285 82.605 129.912 80.6671 130.441 78.706C130.593 78.1439 130.862 77.8923 131.45 77.7842C133.875 77.341 133.866 77.3231 135.205 79.3872C136.197 80.9165 137.207 82.435 138.279 84.0612C140.151 83.209 142.021 82.3711 143.872 81.4883C144.021 81.4164 144.113 81.041 144.091 80.8202C143.872 78.6494 143.605 76.484 143.41 74.3114C143.383 74.0097 143.643 73.663 143.822 73.3684C143.907 73.2319 144.14 73.1941 144.262 73.0701C145.658 71.6399 146.932 71.9049 148.383 73.1179C149.682 74.2017 151.198 75.0249 152.711 76.0242C153.908 74.8814 155.119 73.7405 156.312 72.5816C157.477 71.4514 157.47 71.4442 156.648 70.0441C155.771 68.5471 154.903 67.0447 154.004 65.562C153.74 65.1276 153.65 64.7883 154.05 64.3769C154.381 64.0373 154.704 63.6475 154.89 63.22C155.358 62.1513 156.121 62.158 157.091 62.3909C158.862 62.8154 160.659 63.1321 162.437 63.5332C162.969 63.6532 163.245 63.5399 163.48 63.028C164.189 61.478 164.926 59.9405 165.709 58.4263C165.993 57.8802 165.86 57.6038 165.425 57.2377C163.776 55.8507 162.173 54.4116 160.533 53.0155C160.093 52.6405 159.931 52.2941 160.153 51.7068C160.415 51.0117 160.616 50.2736 160.7 49.5373C160.791 48.7382 161.204 48.4668 161.931 48.3083C163.947 47.8726 165.949 47.3758 167.947 46.861C168.182 46.7998 168.516 46.4764 168.519 46.2681C168.559 44.1187 168.542 41.9675 168.541 39.7858C166.226 39.2108 163.975 38.6286 161.711 38.1021C161.088 37.957 160.825 37.6627 160.732 37.045C160.614 36.2801 160.425 35.5189 160.188 34.781C160.013 34.2425 160.137 33.9084 160.555 33.5472C162.183 32.1349 163.766 30.6741 165.399 29.2671C165.889 28.8448 165.984 28.4928 165.675 27.904C164.884 26.3962 164.141 24.8596 163.417 23.3193C163.188 22.8347 162.914 22.7809 162.423 22.8926C160.472 23.3409 158.506 23.7263 156.552 24.171C155.982 24.3007 155.624 24.1716 155.259 23.696C153.692 21.6499 153.671 21.6589 154.907 19.4315C155.719 17.9676 156.55 16.5144 157.429 14.9589C155.943 13.5448 154.468 12.1146 152.948 10.7329C152.809 10.6073 152.334 10.7027 152.107 10.8429C150.361 11.9429 148.627 13.0644 146.915 14.2165C146.453 14.5274 146.143 14.4647 145.643 14.2406C143.752 13.3888 143.031 12.1215 143.542 10.0185C143.891 8.58178 143.895 7.05549 143.995 5.56684C144.013 5.29749 143.817 4.89359 143.592 4.75187C143.091 4.43614 142.515 4.23897 141.963 4.00766C140.76 3.49664 139.546 2.99459 138.224 2.44234ZM126.747 12.7419C144.305 12.8623 156.878 27.4874 156.968 42.8077C157.068 59.6884 143.323 73.7458 126.753 73.6086C109.086 73.4631 96.1197 58.7664 96.4473 42.3344C96.7435 27.4142 109.498 12.8206 126.747 12.7419Z" fill="black"/>
<path id="second-gear"  class="secondgear" d="M98.7714 43.2523C98.8973 58.4128 111.381 71.6661 127.513 71.3097C141.682 70.9959 154.763 58.9877 154.59 42.7463C154.419 26.7832 140.93 14.8216 126.479 15.0351C111.376 15.2579 98.7101 28.0218 98.7714 43.2523ZM144.171 35.017C144.505 35.8913 144.788 36.6327 145.103 37.4567C143.869 37.883 142.753 38.2715 141.6 38.6691C141.852 39.8235 142.092 40.9151 142.336 42.039C143.52 42.0383 144.651 42.0376 145.859 42.0369C145.86 42.888 145.86 43.6961 145.861 44.5005C144.618 44.5013 143.466 44.502 142.324 44.5027C142.105 45.6664 141.898 46.7726 141.681 47.9255C142.82 48.3217 143.906 48.7017 145.093 49.1158C144.756 49.9671 144.459 50.7215 144.143 51.5225C142.967 51.0222 141.936 50.5847 140.898 50.1436C140.2 51.2125 139.549 52.2076 138.87 53.2423C139.772 54.0265 140.663 54.8017 141.617 55.6307C141.007 56.299 140.449 56.9081 139.792 57.6249C138.91 56.6989 138.094 55.8429 137.277 54.9833C136.222 55.7363 135.213 56.4551 134.197 57.1812C134.738 58.2223 135.243 59.1971 135.808 60.2849C134.968 60.6535 134.192 60.9933 133.341 61.3656C132.901 60.1933 132.507 59.1395 132.111 58.0857C131.055 58.3144 130.077 58.5861 129.08 58.7214C128.477 58.8025 128.33 59.0235 128.402 59.5855C128.521 60.4976 128.583 61.4151 128.677 62.4188C127.702 62.4194 126.854 62.4199 125.917 62.4205C125.974 61.2299 126.029 60.0861 126.084 58.9476C124.794 58.6952 123.602 58.4607 122.372 58.2208C121.97 59.3182 121.585 60.3761 121.167 61.5184C120.274 61.1382 119.471 60.7958 118.607 60.4282C119.181 59.2822 119.683 58.2799 120.17 57.31C119.059 56.5547 118.026 55.8514 116.952 55.1213C116.148 55.9424 115.339 56.7706 114.478 57.6492C113.833 57.005 113.227 56.4002 112.569 55.7434C113.51 54.933 114.404 54.1639 115.251 53.4326C114.53 52.3449 113.872 51.3559 113.18 50.313C112.139 50.7823 111.087 51.257 109.983 51.7551C109.636 50.9203 109.32 50.1556 108.96 49.2939C109.922 48.9324 110.805 48.5817 111.703 48.2723C112.155 48.1158 112.303 47.9236 112.15 47.4191C111.926 46.6776 111.77 45.9092 111.678 45.1407C111.616 44.6218 111.399 44.4873 110.927 44.5217C110.011 44.5869 109.095 44.6179 108.077 44.6688C108.077 43.7746 108.076 42.9307 108.076 41.9826C109.06 42.052 109.95 42.0982 110.836 42.1874C111.326 42.2374 111.604 42.1708 111.679 41.5818C111.797 40.639 112.023 39.7105 112.222 38.6887C111.162 38.2871 110.084 37.8801 108.911 37.4355C109.275 36.5698 109.614 35.7669 109.966 34.9282C111.128 35.4661 112.17 35.9503 113.157 36.4094C113.9 35.3029 114.575 34.2969 115.28 33.246C114.38 32.4762 113.48 31.7082 112.682 31.0264C113.315 30.3113 113.879 29.6735 114.487 28.9854C115.353 29.924 116.153 30.7891 116.92 31.6182C118.038 30.8364 119.063 30.1211 120.135 29.3735C119.651 28.361 119.167 27.345 118.624 26.2069C119.513 25.8275 120.339 25.4732 121.215 25.0974C121.625 26.302 121.988 27.3684 122.348 28.4276C123.616 28.1863 124.806 27.9593 126.056 27.7215C126.055 26.5579 126.054 25.3854 126.054 24.2236C126.951 24.2231 127.763 24.2226 128.677 24.222C128.563 25.4683 128.458 26.6175 128.351 27.7704C129.604 28.0444 130.813 28.3076 132.041 28.5762C132.479 27.4465 132.894 26.3742 133.346 25.2086C134.223 25.5887 134.981 25.9169 135.766 26.2576C135.22 27.3748 134.711 28.4184 134.186 29.4925C135.249 30.2622 136.273 31.0031 137.315 31.7567C138.164 30.8512 138.971 29.9888 139.843 29.0581C140.49 29.7777 141.054 30.4041 141.637 31.0502C140.621 31.9181 139.716 32.6889 138.826 33.4472C139.514 34.5063 140.162 35.5006 140.839 36.5435C141.94 36.0383 142.991 35.5564 144.171 35.017Z" fill="black"/>
<path id="Vector_2" d="M112.927 43.5759C112.94 50.9541 119.567 57.6137 126.868 57.586C134.659 57.5579 141.015 51.1508 140.987 43.3524C140.959 35.4713 134.649 29.0863 126.906 29.1053C119.219 29.1261 112.911 35.6535 112.927 43.5759ZM137.608 43.3185C137.866 49.077 132.57 54.099 127.119 54.1005C121.324 54.1022 116.378 49.2085 116.369 43.4445C116.36 37.5279 121.167 32.6139 126.994 32.5852C132.776 32.5566 137.597 37.4324 137.608 43.3185Z" fill="black"/>
</g>
<g id="firstgear">
<path id="first-gear"  class="firstgear" d="M80.4457 73.8546C78.4216 76.9345 76.4358 79.8855 74.5378 82.8941C73.99 83.7607 73.4308 83.8515 72.4356 83.8411C69.4995 83.8155 68.2376 82.3852 67.7835 79.5947C67.39 77.1769 66.5278 74.839 65.9177 72.4543C65.7474 71.7882 65.5086 71.4429 64.7356 71.468C61.9503 71.5602 59.1622 71.6167 56.3742 71.6157C55.3927 71.6162 55.0612 72.0112 54.9192 72.9407C54.4386 76.0525 53.8511 79.1453 53.3458 82.2517C53.1764 83.2853 52.7134 83.7407 51.6637 84.1717C48.52 85.4621 46.31 84.8494 44.507 81.8787C43.3819 80.0234 41.7443 78.4837 40.3753 76.7711C39.9198 76.2011 39.525 76.1328 38.8783 76.4732C36.4145 77.7714 33.9314 79.034 31.4292 80.2582C30.7221 80.604 30.5551 80.9797 30.731 81.7554C31.4375 84.8666 32.037 88.0052 32.7325 91.1191C32.9744 92.2046 32.8625 92.997 31.8321 93.6665C30.6866 94.4101 29.6125 95.2826 28.6097 96.2125C27.9493 96.8243 27.4148 96.8356 26.6798 96.4303C24.0827 94.9953 21.4446 93.6317 18.8613 92.1748C18.1565 91.7777 17.7563 91.8519 17.2577 92.4581C15.3401 94.784 13.4005 97.0908 11.4253 99.3674C10.9294 99.9379 10.9762 100.338 11.396 100.903C13.3249 103.509 15.1989 106.153 17.1387 108.751C17.6133 109.387 17.6657 109.85 17.2549 110.56C16.3649 112.099 15.5407 113.684 14.8206 115.31C14.4647 116.113 14.0126 116.399 13.1737 116.383C10.2485 116.33 7.3233 116.323 4.39813 116.3C3.95127 116.298 3.50441 116.301 3.00821 116.301C2.15514 120.063 1.32942 123.704 0.470886 127.485C3.46824 129.008 6.44917 130.574 9.48213 132.033C10.4172 132.482 10.7136 133.003 10.6457 134.031C10.5452 135.528 10.6147 137.044 10.706 138.546C10.7586 139.399 10.4793 139.854 9.70641 140.238C6.64236 141.759 3.61674 143.356 0.44584 144.989C1.30883 148.575 2.13616 152.116 3.05394 155.633C3.12539 155.91 3.8219 156.195 4.2194 156.186C7.23499 156.129 10.2506 156.048 13.2579 155.865C14.1077 155.813 14.4505 156.079 14.7937 156.799C15.5787 158.446 16.4241 160.069 17.3489 161.642C17.766 162.352 17.7225 162.862 17.2623 163.49C15.4791 165.92 13.7863 168.416 11.94 170.796C11.0717 171.918 11.1379 172.658 12.0898 173.694C14.1528 175.941 16.0705 178.322 18.0924 180.7C21.0056 179.089 23.8476 177.552 26.6539 175.95C27.4733 175.48 28.0572 175.411 28.7978 176.14C29.7717 177.096 30.8496 177.967 31.9686 178.748C32.8627 179.373 32.981 180.083 32.7705 181.072C32.1089 184.195 31.5571 187.343 30.8708 190.46C30.6877 191.291 30.8551 191.686 31.5928 192.064C34.2309 193.416 36.8417 194.832 39.6252 196.308C40.9127 194.775 42.1948 193.253 43.4687 191.728C44.5535 190.43 45.6685 189.157 46.693 187.814C47.156 187.205 47.6137 187.054 48.3212 187.259C49.5468 187.614 50.778 188.003 52.0337 188.191C53.0262 188.339 53.2678 188.876 53.4081 189.72C53.9446 192.96 54.5607 196.189 55.0753 199.435C55.2267 200.397 55.6079 200.69 56.5811 200.684C58.9552 200.669 61.3403 200.695 63.7036 200.897C65.0909 201.014 65.7184 200.651 66.0603 199.253C66.7986 196.242 67.7564 193.284 68.5633 190.29C68.7958 189.431 69.2068 189.047 70.1032 188.882C73.8065 188.206 73.7928 188.178 75.8371 191.33C77.3518 193.664 78.8939 195.983 80.5293 198.466C83.3879 197.164 86.2437 195.885 89.0694 194.537C89.2969 194.428 89.4363 193.855 89.4032 193.517C89.0695 190.203 88.6617 186.897 88.3637 183.58C88.3223 183.12 88.7195 182.59 88.9933 182.14C89.1221 181.932 89.4784 181.874 89.6647 181.685C91.7963 179.501 93.7402 179.906 95.9565 181.758C97.9395 183.413 100.254 184.67 102.563 186.195C104.391 184.45 106.24 182.708 108.062 180.939C109.84 179.214 109.83 179.203 108.575 177.065C107.236 174.78 105.911 172.486 104.539 170.222C104.135 169.559 103.998 169.041 104.609 168.413C105.113 167.894 105.606 167.299 105.891 166.646C106.605 165.015 107.77 165.025 109.251 165.381C111.954 166.029 114.699 166.512 117.413 167.125C118.225 167.308 118.647 167.135 119.006 166.353C120.087 163.987 121.212 161.639 122.409 159.328C122.842 158.494 122.639 158.072 121.975 157.513C119.457 155.395 117.01 153.198 114.506 151.067C113.834 150.494 113.587 149.965 113.926 149.069C114.326 148.007 114.632 146.881 114.76 145.756C114.899 144.536 115.53 144.122 116.64 143.88C119.718 143.215 122.774 142.456 125.825 141.67C126.184 141.577 126.694 141.083 126.699 140.765C126.76 137.484 126.734 134.199 126.732 130.868C123.197 129.991 119.762 129.102 116.304 128.298C115.353 128.076 114.952 127.627 114.809 126.684C114.63 125.516 114.342 124.354 113.979 123.227C113.713 122.405 113.902 121.895 114.54 121.344C117.025 119.187 119.442 116.957 121.935 114.809C122.683 114.164 122.828 113.627 122.356 112.728C121.149 110.426 120.015 108.08 118.909 105.728C118.56 104.988 118.141 104.906 117.392 105.077C114.413 105.761 111.411 106.35 108.429 107.029C107.557 107.227 107.011 107.03 106.454 106.303C104.062 103.18 104.029 103.193 105.916 99.7927C107.157 97.5577 108.424 95.339 109.766 92.9641C107.498 90.8052 105.246 88.6216 102.925 86.5121C102.714 86.3203 101.988 86.466 101.642 86.6801C98.9759 88.3595 96.3286 90.0718 93.7143 91.8306C93.01 92.3053 92.5357 92.2097 91.7734 91.8674C88.8858 90.567 87.7853 88.6322 88.5647 85.4214C89.098 83.2279 89.1048 80.8977 89.2569 78.6249C89.2841 78.2137 88.9849 77.597 88.6421 77.3806C87.8769 76.8986 86.9967 76.5976 86.1549 76.2444C84.3176 75.4642 82.4639 74.6977 80.4457 73.8546ZM62.9234 89.5793C89.7297 89.7632 108.925 112.092 109.063 135.482C109.216 161.255 88.2316 182.717 62.9331 182.507C35.9596 182.285 16.1635 159.847 16.6637 134.759C17.116 111.98 36.5889 89.6994 62.9234 89.5793Z" fill="black"/>
<path id="second-gear"  class="secondgear" d="M20.2121 136.161C20.4043 159.307 39.4643 179.541 64.0934 178.997C85.7261 178.518 105.698 160.185 105.433 135.388C105.172 111.017 84.5776 92.7546 62.5144 93.0805C39.4561 93.4207 20.1185 112.908 20.2121 136.161ZM89.5255 123.588C90.0362 124.923 90.4673 126.055 90.9478 127.313C89.0648 127.963 87.36 128.557 85.6003 129.164C85.9852 130.926 86.3508 132.593 86.7247 134.309C88.5313 134.308 90.2584 134.306 92.1034 134.305C92.1042 135.605 92.105 136.838 92.1057 138.067C90.2086 138.068 88.4486 138.069 86.705 138.07C86.3716 139.847 86.0546 141.536 85.724 143.296C87.4625 143.901 89.1214 144.481 90.9339 145.113C90.4193 146.413 89.9649 147.564 89.4831 148.787C87.687 148.024 86.113 147.356 84.528 146.682C83.4626 148.314 82.4683 149.833 81.433 151.413C82.81 152.61 84.1704 153.794 85.6269 155.06C84.6955 156.08 83.8434 157.01 82.8407 158.104C81.4938 156.69 80.2484 155.384 79.0002 154.071C77.3889 155.221 75.8488 156.318 74.2978 157.427C75.124 159.016 75.8952 160.504 76.7571 162.165C75.4744 162.728 74.2904 163.247 72.9913 163.815C72.3185 162.025 71.7172 160.417 71.1131 158.808C69.5013 159.157 68.0075 159.572 66.4861 159.778C65.565 159.902 65.3404 160.239 65.4506 161.097C65.6324 162.49 65.7264 163.891 65.8699 165.423C64.3813 165.424 63.0873 165.425 61.6563 165.426C61.7429 163.608 61.8268 161.862 61.9107 160.124C59.9421 159.738 58.1216 159.38 56.2434 159.014C55.6304 160.689 55.0419 162.305 54.4042 164.049C53.0413 163.468 51.8156 162.945 50.4966 162.384C51.3728 160.634 52.1395 159.104 52.8815 157.623C51.1866 156.47 49.6096 155.397 47.9695 154.282C46.7421 155.535 45.5065 156.8 44.1914 158.141C43.2066 157.158 42.2822 156.234 41.2782 155.232C42.714 153.994 44.0785 152.82 45.3718 151.704C44.2715 150.043 43.2672 148.533 42.2107 146.941C40.6211 147.657 39.015 148.382 37.3295 149.142C36.7996 147.868 36.3164 146.7 35.7673 145.385C37.2364 144.833 38.5849 144.298 39.9554 143.825C40.6461 143.586 40.8707 143.293 40.6372 142.523C40.2966 141.391 40.0574 140.217 39.9168 139.044C39.8231 138.252 39.4913 138.046 38.7703 138.099C37.3722 138.198 35.9741 138.246 34.4197 138.324C34.4189 136.958 34.4181 135.67 34.4173 134.222C35.9196 134.328 37.2795 134.399 38.6311 134.535C39.3796 134.611 39.8044 134.51 39.919 133.61C40.0991 132.171 40.4437 130.754 40.747 129.193C39.1292 128.58 37.4839 127.959 35.6933 127.28C36.249 125.958 36.7664 124.733 37.303 123.452C39.0772 124.273 40.6677 125.013 42.176 125.714C43.3099 124.024 44.3398 122.488 45.4162 120.884C44.042 119.709 42.6678 118.536 41.45 117.495C42.4171 116.403 43.2773 115.43 44.206 114.379C45.5283 115.812 46.749 117.133 47.9204 118.399C49.6276 117.205 51.1923 116.113 52.8283 114.972C52.0899 113.426 51.3515 111.875 50.5226 110.137C51.8792 109.558 53.14 109.017 54.4775 108.443C55.1037 110.282 55.6584 111.91 56.2077 113.528C58.1429 113.159 59.9603 112.812 61.8682 112.449C61.8671 110.673 61.866 108.883 61.865 107.109C63.2357 107.108 64.4748 107.107 65.8702 107.107C65.6959 109.009 65.5353 110.764 65.3718 112.524C67.2856 112.942 69.1309 113.344 71.0063 113.754C71.6742 112.03 72.3092 110.392 72.999 108.613C74.3372 109.193 75.4944 109.694 76.6927 110.214C75.8604 111.92 75.0827 113.513 74.2805 115.153C75.9041 116.328 77.4675 117.46 79.0582 118.61C80.3541 117.228 81.587 115.911 82.9185 114.49C83.9061 115.589 84.7675 116.545 85.6563 117.531C84.1054 118.857 82.7244 120.033 81.3654 121.191C82.4163 122.808 83.4042 124.326 84.4387 125.918C86.1187 125.147 87.7248 124.411 89.5255 123.588Z" fill="black"/>
<path id="Vector_3" d="M41.8234 136.655C41.844 147.92 51.9607 158.087 63.1075 158.045C75.0027 158.002 84.7071 148.22 84.6643 136.314C84.6214 124.282 74.9874 114.533 63.1662 114.562C51.4299 114.594 41.7997 124.56 41.8234 136.655ZM79.5048 136.262C79.8994 145.054 71.8139 152.721 63.4908 152.723C54.6441 152.726 47.0923 145.255 47.0787 136.455C47.065 127.421 54.4049 119.919 63.301 119.875C72.1285 119.831 79.4884 127.276 79.5048 136.262Z" fill="black"/>
</g>
</g>
</svg>
