<svg width="201" height="196" viewBox="0 0 201 196" fill="none" xmlns="http://www.w3.org/2000/svg">
<g id="Gear">
<path id="1st-gear" d="M3.79463 124.459C8.55118 121.329 13.1087 118.258 17.7551 115.323C19.0935 114.476 19.2333 113.612 19.2164 112.074C19.174 107.538 16.963 105.589 12.6512 104.891C8.91544 104.285 5.30249 102.955 1.61754 102.015C0.588292 101.752 0.0546089 101.383 0.0927292 100.189C0.232503 95.8857 0.317215 91.5781 0.312979 87.2705C0.312979 85.7542 0.922903 85.2417 2.35876 85.0214C7.16615 84.2759 11.9439 83.3653 16.7428 82.5817C18.3396 82.3191 19.0427 81.6033 19.7077 79.9811C21.6984 75.1229 20.7497 71.709 16.1583 68.9262C13.2908 67.1896 10.9104 64.661 8.26316 62.5474C7.38216 61.8443 7.27627 61.2344 7.80149 60.2348C9.80491 56.427 11.7533 52.5896 13.6423 48.7225C14.176 47.6297 14.7563 47.3713 15.955 47.6424C20.7624 48.731 25.6121 49.6543 30.4237 50.7259C32.101 51.0986 33.3251 50.925 34.3586 49.3324C35.5064 47.5619 36.8533 45.9016 38.2892 44.3514C39.2337 43.3306 39.2507 42.5047 38.6238 41.3695C36.4044 37.3584 34.295 33.2838 32.0417 29.2939C31.4276 28.2053 31.5419 27.5869 32.478 26.8161C36.0697 23.8512 39.6319 20.8524 43.1474 17.7985C44.0284 17.0319 44.6468 17.1039 45.5193 17.7519C49.5474 20.7295 53.6347 23.6224 57.65 26.617C58.6327 27.3498 59.3485 27.4302 60.4455 26.7949C62.8217 25.4183 65.2698 24.1434 67.7815 23.0295C69.0226 22.4788 69.4631 21.78 69.4376 20.4839C69.3529 15.9645 69.3402 11.4451 69.3021 6.92578C69.2979 6.23538 69.3021 5.54498 69.3021 4.77834C75.1133 3.45684 80.7382 2.1777 86.579 0.847726C88.934 5.47722 91.3568 10.0813 93.6143 14.7658C94.309 16.2102 95.1137 16.6676 96.7021 16.5617C99.0147 16.405 101.357 16.5109 103.678 16.6507C104.995 16.7312 105.698 16.2991 106.291 15.1047C108.638 10.3693 111.103 5.69323 113.623 0.792664C119.163 2.12264 124.636 3.39755 130.07 4.81223C130.498 4.92235 130.938 5.99819 130.926 6.61235C130.841 11.2715 130.718 15.9306 130.438 20.5771C130.358 21.8901 130.769 22.4195 131.883 22.949C134.428 24.1604 136.936 25.4649 139.367 26.8923C140.464 27.5361 141.252 27.4683 142.222 26.7568C145.975 23.9994 149.829 21.3818 153.505 18.527C155.238 17.1844 156.381 17.286 157.982 18.7558C161.456 21.9409 165.136 24.9016 168.813 28.0232C166.327 32.5256 163.955 36.9179 161.481 41.2552C160.757 42.5216 160.651 43.4238 161.778 44.5674C163.256 46.071 164.603 47.7356 165.81 49.4637C166.776 50.8445 167.873 51.0266 169.402 50.7005C174.226 49.6755 179.088 48.8199 183.904 47.7568C185.188 47.473 185.798 47.7314 186.382 48.8707C188.474 52.9454 190.664 56.9776 192.947 61.2767C190.579 63.2675 188.229 65.2497 185.874 67.2193C183.87 68.8966 181.905 70.6204 179.83 72.2045C178.889 72.9204 178.656 73.6277 178.974 74.7205C179.525 76.6138 180.126 78.5156 180.418 80.4555C180.647 81.9887 181.477 82.3615 182.782 82.5775C187.788 83.4034 192.778 84.3522 197.793 85.1442C199.279 85.3772 199.733 85.9659 199.724 87.4696C199.703 91.1376 199.745 94.8225 200.059 98.4736C200.241 100.617 199.682 101.587 197.522 102.116C192.871 103.26 188.301 104.742 183.675 105.992C182.35 106.352 181.757 106.987 181.503 108.372C180.461 114.094 180.418 114.073 185.289 117.229C188.898 119.567 192.481 121.947 196.319 124.472C194.311 128.889 192.337 133.303 190.258 137.67C190.088 138.021 189.203 138.237 188.682 138.186C183.561 137.674 178.453 137.047 173.328 136.59C172.616 136.526 171.799 137.14 171.104 137.564C170.782 137.763 170.693 138.313 170.401 138.601C167.03 141.897 167.657 144.9 170.52 148.322C173.078 151.384 175.022 154.959 177.381 158.526C174.688 161.351 171.998 164.21 169.266 167.026C166.602 169.775 166.585 169.758 163.281 167.823C159.749 165.756 156.204 163.71 152.705 161.592C151.68 160.97 150.879 160.758 149.909 161.702C149.109 162.482 148.19 163.244 147.182 163.685C144.662 164.79 144.678 166.59 145.229 168.877C146.233 173.054 146.983 177.294 147.931 181.487C148.215 182.74 147.948 183.393 146.741 183.948C143.086 185.621 139.46 187.361 135.89 189.212C134.602 189.882 133.95 189.568 133.086 188.543C129.812 184.655 126.415 180.877 123.119 177.01C122.234 175.972 121.417 175.591 120.032 176.116C118.392 176.734 116.652 177.209 114.915 177.408C113.03 177.624 112.391 178.598 112.018 180.313C110.993 185.07 109.824 189.793 108.613 194.507C108.469 195.062 107.706 195.85 107.215 195.858C102.145 195.955 97.0706 195.917 91.9243 195.917C90.5647 190.458 89.1882 185.151 87.9429 179.809C87.5998 178.34 86.9052 177.721 85.4481 177.501C83.6438 177.226 81.8479 176.781 80.1071 176.222C78.8364 175.811 78.0486 176.103 77.1972 177.09C73.8681 180.932 70.4245 184.668 67.1081 188.522C66.1127 189.678 65.2825 189.903 63.8933 189.174C60.3354 187.311 56.7097 185.561 53.0756 183.854C51.932 183.317 51.8049 182.668 52.0675 181.512C53.1222 176.908 54.0286 172.27 55.0748 167.662C55.3798 166.315 55.0748 165.472 53.9524 164.612C49.1238 160.919 49.145 160.868 43.8929 163.786C40.4409 165.705 37.0143 167.666 33.3463 169.741C30.0086 166.239 26.6329 162.761 23.3715 159.178C23.075 158.852 23.2995 157.729 23.6298 157.196C26.222 153.074 28.865 148.983 31.58 144.942C32.3128 143.854 32.1645 143.121 31.6351 141.943C29.6232 137.483 26.6329 135.785 21.673 136.992C18.2845 137.818 14.6843 137.831 11.173 138.068C10.5377 138.11 9.58466 137.648 9.25005 137.119C8.50459 135.937 8.03868 134.578 7.49229 133.277C6.28515 130.44 5.09918 127.576 3.79463 124.459ZM28.073 97.3724C28.3822 138.788 62.8979 168.424 99.0359 168.615C138.855 168.827 171.994 136.386 171.646 97.3004C171.278 55.6265 136.593 25.0625 97.833 25.8588C62.6395 26.5789 28.2339 56.6854 28.073 97.3724Z" fill="black"/>
<path id="2nd-gear" d="M100.001 31.3397C135.762 31.615 167.042 61.0438 166.225 99.0962C165.505 132.519 137.198 163.392 98.8875 163.007C61.2332 162.626 32.9988 130.825 33.4817 96.737C33.9857 61.1116 64.0753 31.2168 100.001 31.3397ZM80.6406 138.441C82.7034 139.228 84.4527 139.893 86.3968 140.635C87.4006 137.725 88.3155 135.09 89.2516 132.371C91.975 132.964 94.5503 133.527 97.2018 134.103C97.2018 136.895 97.2018 139.563 97.2018 142.414C99.2094 142.414 101.115 142.414 103.013 142.414C103.013 139.482 103.013 136.763 103.013 134.069C105.758 133.553 108.367 133.061 111.086 132.549C112.022 135.234 112.92 137.797 113.898 140.596C115.906 139.8 117.685 139.097 119.574 138.352C118.392 135.577 117.359 133.146 116.317 130.698C118.837 129.05 121.184 127.513 123.623 125.912C125.474 128.038 127.304 130.139 129.261 132.388C130.836 130.948 132.272 129.631 133.962 128.08C131.777 126.001 129.756 124.078 127.728 122.151C129.502 119.66 131.197 117.28 132.908 114.882C135.364 116.157 137.664 117.347 140.231 118.677C141.099 116.695 141.9 114.865 142.777 112.858C140.011 111.82 137.524 110.892 135.038 109.961C135.576 107.47 136.216 105.162 136.533 102.811C136.724 101.388 137.245 101.04 138.571 101.21C140.722 101.489 142.887 101.633 145.254 101.854C145.254 99.5537 145.254 97.5545 145.254 95.3435C142.446 95.4791 139.748 95.6104 137.063 95.7417C136.466 92.7005 135.911 89.8881 135.343 86.9867C137.931 86.038 140.426 85.1273 143.12 84.1404C142.222 82.0353 141.413 80.142 140.544 78.1047C137.842 79.4601 135.479 80.6461 133.191 81.7939C131.408 79.1763 129.748 76.7409 128.024 74.208C129.96 72.3104 131.912 70.4002 133.984 68.3671C132.463 66.8465 131.036 65.4191 129.485 63.8689C127.575 66.0884 125.762 68.1977 124.038 70.1969C121.472 68.4984 119.138 66.9482 116.677 65.3175C117.782 62.8609 118.901 60.3788 120.074 57.7739C118.104 56.9565 116.3 56.211 114.267 55.3639C113.416 57.6342 112.59 59.7181 111.861 61.8359C111.493 62.9032 111.039 63.2505 109.849 62.8905C108.1 62.3653 106.287 61.9968 104.474 61.7808C103.25 61.6368 102.932 61.1243 103.013 60.0103C103.165 57.8502 103.237 55.69 103.356 53.2884C101.247 53.2884 99.256 53.2884 97.0196 53.2884C97.1848 55.6095 97.2949 57.7104 97.5067 59.7985C97.6253 60.9549 97.4686 61.6114 96.0793 61.7893C93.8556 62.0688 91.6659 62.6025 89.2558 63.0726C88.307 60.5736 87.3456 58.0323 86.2951 55.2665C84.2536 56.1263 82.3603 56.9268 80.3823 57.757C81.6529 60.4974 82.7966 62.954 83.8809 65.2836C81.2717 67.0371 78.8998 68.6297 76.422 70.2943C74.6049 68.1723 72.7921 66.0503 71.1826 64.1697C69.4968 65.6648 67.9932 66.9948 66.371 68.4306C68.5862 70.4722 70.6277 72.357 72.5846 74.1656C70.7421 76.8044 69.0563 79.2229 67.2943 81.7515C64.9055 80.6122 62.5081 79.4728 59.8228 78.1937C58.9291 80.2903 58.0946 82.2386 57.2094 84.3056C60.0515 85.2713 62.5674 86.1269 65.0664 86.974C64.4988 89.9643 63.9652 92.7725 63.4061 95.7205C60.6614 95.7205 57.8956 95.7205 55.1552 95.7205C55.1552 97.8383 55.1552 99.7528 55.1552 101.909C58.0946 101.638 60.8054 101.388 63.5247 101.134C64.1727 104.09 64.7953 106.941 65.4307 109.838C62.7665 110.871 60.2378 111.854 57.489 112.921C58.3869 114.988 59.162 116.776 59.9668 118.627C62.6013 117.339 65.0622 116.136 67.595 114.895C69.4121 117.402 71.1614 119.817 72.9404 122.273C70.8056 124.277 68.7725 126.183 66.5785 128.241C68.277 129.766 69.7552 131.096 71.28 132.468C73.3258 130.071 75.1429 127.936 76.9303 125.835C79.4293 127.458 81.7758 128.982 84.2366 130.579C83.0464 133.176 81.9113 135.658 80.6406 138.441Z" fill="black"/>
<path id="Vector" d="M100.785 64.7287C118.189 64.7499 133.907 80.3707 133.852 97.5926C133.797 115.971 118.693 130.973 100.298 130.918C81.708 130.863 66.6378 115.988 66.6717 97.7239C66.7098 79.5914 82.0977 64.7033 100.785 64.7287ZM100.213 122.947C113.797 123.548 125.635 111.049 125.631 98.1898C125.627 84.5216 114.076 72.861 100.48 72.8483C86.5239 72.8356 74.9395 84.1827 74.8802 97.9272C74.8209 111.566 86.329 122.93 100.213 122.947Z" fill="black"/>
</g>
</svg>
