<svg width="32" height="32" viewBox="0 0 32 32" fill="none" xmlns="http://www.w3.org/2000/svg">
<path d="M16 10.9167C14.5634 10.9167 13.1856 11.4873 12.1698 12.5032C11.154 13.519 10.5833 14.8967 10.5833 16.3333C10.5833 17.7699 11.154 19.1477 12.1698 20.1635C13.1856 21.1793 14.5634 21.75 16 21.75C17.4366 21.75 18.8143 21.1793 19.8301 20.1635C20.846 19.1477 21.4167 17.7699 21.4167 16.3333C21.4167 14.8967 20.846 13.519 19.8301 12.5032C18.8143 11.4873 17.4366 10.9167 16 10.9167Z" fill="white"/>
<path fill-rule="evenodd" clip-rule="evenodd" d="M7.28333 1.47C13.0767 0.827831 18.9233 0.827831 24.7167 1.47C27.8817 1.82333 30.4333 4.315 30.805 7.49166C31.492 13.3661 31.492 19.3006 30.805 25.175C30.4333 28.3517 27.8817 30.8433 24.7183 31.1983C18.9244 31.8407 13.0772 31.8407 7.28333 31.1983C4.11833 30.8433 1.56666 28.3517 1.195 25.1767C0.507877 19.3017 0.507877 13.3666 1.195 7.49166C1.56666 4.315 4.11833 1.82333 7.28333 1.47ZM24.3333 6.33333C23.8913 6.33333 23.4674 6.50893 23.1548 6.82149C22.8423 7.13405 22.6667 7.55797 22.6667 8C22.6667 8.44202 22.8423 8.86595 23.1548 9.17851C23.4674 9.49107 23.8913 9.66666 24.3333 9.66666C24.7754 9.66666 25.1993 9.49107 25.5118 9.17851C25.8244 8.86595 26 8.44202 26 8C26 7.55797 25.8244 7.13405 25.5118 6.82149C25.1993 6.50893 24.7754 6.33333 24.3333 6.33333ZM8.08333 16.3333C8.08333 14.2337 8.91741 12.2201 10.4021 10.7354C11.8867 9.25074 13.9004 8.41666 16 8.41666C18.0996 8.41666 20.1133 9.25074 21.5979 10.7354C23.0826 12.2201 23.9167 14.2337 23.9167 16.3333C23.9167 18.433 23.0826 20.4466 21.5979 21.9313C20.1133 23.4159 18.0996 24.25 16 24.25C13.9004 24.25 11.8867 23.4159 10.4021 21.9313C8.91741 20.4466 8.08333 18.433 8.08333 16.3333Z" fill="white"/>
</svg>
