<svg width="51" height="50" viewBox="0 0 51 50" fill="none" xmlns="http://www.w3.org/2000/svg">
<path fill-rule="evenodd" clip-rule="evenodd" d="M0.5 0H50.5V50H0.5V0ZM38.7229 41.9167C36.4042 41.9167 35.0938 40.7083 34.0875 39.0625L30.2687 41.2812C31.6479 44.0062 34.4667 46.0854 38.8312 46.0854C43.2937 46.0854 46.6167 43.7687 46.6167 39.5375C46.6167 35.6146 44.3625 33.8708 40.3708 32.1562L39.1958 31.6542C37.1792 30.7792 36.3062 30.2104 36.3062 28.8C36.3062 27.6604 37.1812 26.7875 38.5562 26.7875C39.9042 26.7875 40.7729 27.3562 41.5792 28.8L45.2375 26.4521C43.6896 23.7292 41.5438 22.6896 38.5562 22.6896C34.3604 22.6896 31.675 25.3729 31.675 28.8979C31.675 32.7208 33.925 34.5312 37.3167 35.975L38.4917 36.4792C40.6354 37.4167 41.9125 37.9875 41.9125 39.5979C41.9125 40.9437 40.6687 41.9167 38.7229 41.9167ZM20.5146 41.8854C18.9 41.8854 18.2271 40.7812 17.4896 39.4687L13.6646 41.7854C14.7729 44.1312 16.9521 46.0771 20.7125 46.0771C24.8771 46.0771 27.7292 43.8625 27.7292 38.9979V22.9562H23.0312V38.9354C23.0312 41.2833 22.0562 41.8854 20.5125 41.8854" fill="black"/>
</svg>
