<svg width="28" height="27" viewBox="0 0 28 27" fill="none" xmlns="http://www.w3.org/2000/svg">
<g clip-path="url(#clip0_4_59)">
<path d="M0.666672 1.91C0.666672 0.855 1.54334 0 2.62501 0H25.375C26.4567 0 27.3333 0.855 27.3333 1.91V24.7567C27.3333 25.8117 26.4567 26.6667 25.375 26.6667H2.62501C1.54334 26.6667 0.666672 25.8117 0.666672 24.7567V1.91ZM8.90501 22.3233V10.2817H4.90334V22.3233H8.90501ZM6.90501 8.63667C8.30001 8.63667 9.16834 7.71333 9.16834 6.55667C9.14334 5.375 8.30167 4.47667 6.93167 4.47667C5.56167 4.47667 4.66667 5.37667 4.66667 6.55667C4.66667 7.71333 5.53501 8.63667 6.87834 8.63667H6.90501ZM15.085 22.3233V15.5983C15.085 15.2383 15.1117 14.8783 15.2183 14.6217C15.5067 13.9033 16.165 13.1583 17.2717 13.1583C18.72 13.1583 19.2983 14.2617 19.2983 15.8817V22.3233H23.3V15.4167C23.3 11.7167 21.3267 9.99667 18.6933 9.99667C16.57 9.99667 15.6183 11.1633 15.085 11.985V12.0267H15.0583L15.085 11.985V10.2817H11.085C11.135 11.4117 11.085 22.3233 11.085 22.3233H15.085Z" fill="white"/>
</g>
<defs>
<clipPath id="clip0_4_59">
<rect width="26.6667" height="26.6667" fill="white" transform="translate(0.666672)"/>
</clipPath>
</defs>
</svg>
