<svg width="74" height="51" viewBox="0 0 74 51" fill="none" xmlns="http://www.w3.org/2000/svg">
<path d="M2.67695 39V1.18182H19.0747C21.9554 1.18182 24.3744 1.5696 26.3318 2.34517C28.3015 3.12074 29.7849 4.21638 30.7821 5.6321C31.7915 7.04782 32.2963 8.71591 32.2963 10.6364C32.2963 12.0275 31.9885 13.2955 31.373 14.4403C30.7698 15.5852 29.9203 16.5455 28.8247 17.321C27.729 18.0843 26.4487 18.6136 24.9838 18.9091V19.2784C26.6088 19.34 28.086 19.7524 29.4156 20.5156C30.7451 21.2666 31.8038 22.3068 32.5917 23.6364C33.3796 24.9536 33.7735 26.5047 33.7735 28.2898C33.7735 30.358 33.2319 32.1984 32.1485 33.8111C31.0775 35.4238 29.551 36.6918 27.569 37.6151C25.587 38.5384 23.2234 39 20.4781 39H2.67695ZM12.944 30.8011H17.7451C19.4686 30.8011 20.7612 30.4811 21.623 29.8409C22.4847 29.1884 22.9156 28.2282 22.9156 26.9602C22.9156 26.0739 22.7125 25.3229 22.3062 24.7074C21.9 24.0919 21.3214 23.6241 20.5704 23.304C19.8318 22.9839 18.9393 22.8239 17.8929 22.8239H12.944V30.8011ZM12.944 16.4716H17.1542C18.0529 16.4716 18.8469 16.33 19.5363 16.0469C20.2257 15.7637 20.7612 15.3575 21.1429 14.8281C21.5368 14.2865 21.7338 13.6278 21.7338 12.8523C21.7338 11.6828 21.3152 10.7902 20.4781 10.1747C19.641 9.54688 18.5823 9.23295 17.302 9.23295H12.944V16.4716ZM71.4477 20.0909C71.4477 24.3011 70.629 27.8527 68.9917 30.7457C67.3544 33.6264 65.1447 35.8116 62.3625 37.3011C59.5803 38.7784 56.478 39.517 53.0556 39.517C49.6087 39.517 46.4941 38.7723 43.7119 37.2827C40.942 35.7808 38.7384 33.5895 37.1011 30.7088C35.4761 27.8158 34.6636 24.2765 34.6636 20.0909C34.6636 15.8807 35.4761 12.3352 37.1011 9.45455C38.7384 6.56155 40.942 4.37642 43.7119 2.89915C46.4941 1.40956 49.6087 0.664771 53.0556 0.664771C56.478 0.664771 59.5803 1.40956 62.3625 2.89915C65.1447 4.37642 67.3544 6.56155 68.9917 9.45455C70.629 12.3352 71.4477 15.8807 71.4477 20.0909ZM60.8852 20.0909C60.8852 17.8258 60.5836 15.9176 59.9804 14.3665C59.3895 12.803 58.5092 11.6212 57.3397 10.821C56.1825 10.0085 54.7545 9.60227 53.0556 9.60227C51.3568 9.60227 49.9226 10.0085 48.7531 10.821C47.5959 11.6212 46.7157 12.803 46.1125 14.3665C45.5216 15.9176 45.2261 17.8258 45.2261 20.0909C45.2261 22.3561 45.5216 24.2704 46.1125 25.8338C46.7157 27.3849 47.5959 28.5668 48.7531 29.3793C49.9226 30.1795 51.3568 30.5795 53.0556 30.5795C54.7545 30.5795 56.1825 30.1795 57.3397 29.3793C58.5092 28.5668 59.3895 27.3849 59.9804 25.8338C60.5836 24.2704 60.8852 22.3561 60.8852 20.0909Z" fill="#F10039"/>
<path d="M6.67002 50V41.2727H9.72116C10.3291 41.2727 10.8305 41.3778 11.2254 41.5881C11.6203 41.7955 11.9143 42.0753 12.1075 42.4276C12.3007 42.777 12.3973 43.1648 12.3973 43.5909C12.3973 43.9659 12.3305 44.2756 12.197 44.5199C12.0663 44.7642 11.893 44.9574 11.6771 45.0994C11.4641 45.2415 11.2325 45.3466 10.9825 45.4148V45.5C11.2496 45.517 11.518 45.6108 11.7879 45.7812C12.0578 45.9517 12.2837 46.196 12.4655 46.5142C12.6473 46.8324 12.7382 47.2216 12.7382 47.6818C12.7382 48.1193 12.6388 48.5128 12.4399 48.8622C12.241 49.2116 11.9271 49.4886 11.4981 49.6932C11.0692 49.8977 10.5109 50 9.82343 50H6.67002ZM7.72684 49.0625H9.82343C10.5138 49.0625 11.0038 48.929 11.2936 48.6619C11.5862 48.392 11.7325 48.0653 11.7325 47.6818C11.7325 47.3864 11.6572 47.1136 11.5067 46.8636C11.3561 46.6108 11.1416 46.4091 10.8632 46.2585C10.5848 46.1051 10.2552 46.0284 9.87457 46.0284H7.72684V49.0625ZM7.72684 45.108H9.68707C10.0052 45.108 10.2922 45.0455 10.5479 44.9205C10.8064 44.7955 11.0109 44.6193 11.1615 44.392C11.3149 44.1648 11.3916 43.8977 11.3916 43.5909C11.3916 43.2074 11.2581 42.8821 10.991 42.6151C10.724 42.3452 10.3007 42.2102 9.72116 42.2102H7.72684V45.108ZM26.8115 41.2727V50H25.7547V41.2727H26.8115ZM47.1309 41.2727V50H46.1082L41.3525 43.1477H41.2673V50H40.2105V41.2727H41.2332L46.0059 48.142H46.0912V41.2727H47.1309ZM66.4916 44C66.3978 43.7131 66.2742 43.456 66.1208 43.2287C65.9702 42.9986 65.7898 42.8026 65.5796 42.6406C65.3722 42.4787 65.1364 42.3551 64.8722 42.2699C64.608 42.1847 64.3183 42.142 64.0029 42.142C63.4859 42.142 63.0157 42.2756 62.5924 42.5426C62.1691 42.8097 61.8325 43.2031 61.5825 43.723C61.3325 44.2429 61.2075 44.8807 61.2075 45.6364C61.2075 46.392 61.3339 47.0298 61.5867 47.5497C61.8396 48.0696 62.1819 48.4631 62.6137 48.7301C63.0455 48.9972 63.5313 49.1307 64.0711 49.1307C64.5711 49.1307 65.0114 49.0241 65.3921 48.8111C65.7756 48.5952 66.0739 48.2912 66.287 47.8991C66.5029 47.5043 66.6109 47.0398 66.6109 46.5057L66.9347 46.5739H64.3097V45.6364H67.6336V46.5739C67.6336 47.2926 67.4802 47.9176 67.1734 48.4489C66.8694 48.9801 66.4489 49.392 65.912 49.6847C65.3779 49.9744 64.7643 50.1193 64.0711 50.1193C63.2984 50.1193 62.6194 49.9375 62.0342 49.5739C61.4518 49.2102 60.9972 48.6932 60.6705 48.0227C60.3467 47.3523 60.1847 46.5568 60.1847 45.6364C60.1847 44.946 60.2771 44.3253 60.4617 43.7741C60.6492 43.2202 60.9134 42.7486 61.2543 42.3594C61.5952 41.9702 61.9987 41.6719 62.4646 41.4645C62.9305 41.2571 63.4433 41.1534 64.0029 41.1534C64.4631 41.1534 64.8921 41.223 65.2898 41.3622C65.6904 41.4986 66.047 41.6932 66.3595 41.946C66.6748 42.196 66.9376 42.4957 67.1478 42.8452C67.358 43.1918 67.5029 43.5767 67.5825 44H66.4916Z" fill="white"/>
</svg>
