<svg width="18" height="17" viewBox="0 0 18 17" fill="none" xmlns="http://www.w3.org/2000/svg">
<path d="M12.2145 11.7145L16.5 16M7.63633 1C6.42268 1 5.23628 1.35989 4.22717 2.03416C3.21806 2.70843 2.43155 3.66679 1.9671 4.78806C1.50266 5.90932 1.38114 7.14314 1.61791 8.33347C1.85468 9.5238 2.43911 10.6172 3.29729 11.4754C4.15547 12.3335 5.24886 12.918 6.43919 13.1547C7.62952 13.3915 8.86334 13.27 9.9846 12.8056C11.1059 12.3411 12.0642 11.5546 12.7385 10.5455C13.4128 9.53638 13.7727 8.34998 13.7727 7.13633C13.7726 5.5089 13.126 3.94817 11.9753 2.7974C10.8245 1.64664 9.26375 1.0001 7.63633 1Z" stroke="#010400" stroke-width="1.25" stroke-miterlimit="10" stroke-linecap="round"/>
</svg>
